<svg width="980" height="300" viewBox="0 0 980 300" fill="none" xmlns="http://www.w3.org/2000/svg">
  <defs>
    <linearGradient id="gmtAiDriveLabMark" x1="71" y1="35" x2="315" y2="286" gradientUnits="userSpaceOnUse">
      <stop stop-color="#43E7FF"/>
      <stop offset="0.48" stop-color="#FF3D94"/>
      <stop offset="1" stop-color="#FFD166"/>
    </linearGradient>
    <linearGradient id="gmtAiDriveLabText" x1="321" y1="42" x2="933" y2="240" gradientUnits="userSpaceOnUse">
      <stop stop-color="#FFFFFF"/>
      <stop offset="0.55" stop-color="#43E7FF"/>
      <stop offset="1" stop-color="#FF3D94"/>
    </linearGradient>
    <filter id="gmtAiDriveLabGlow" x="0" y="0" width="980" height="300" filterUnits="userSpaceOnUse" color-interpolation-filters="sRGB">
      <feDropShadow dx="0" dy="0" stdDeviation="9" flood-color="#43E7FF" flood-opacity="0.32"/>
      <feDropShadow dx="0" dy="0" stdDeviation="14" flood-color="#FF3D94" flood-opacity="0.28"/>
    </filter>
  </defs>
  <rect width="980" height="300" rx="42" fill="#050711"/>
  <g filter="url(#gmtAiDriveLabGlow)">
    <path d="M86 242L164 48H247L325 242H254L242 209H166L154 242H86Z" fill="url(#gmtAiDriveLabMark)"/>
    <path d="M182 160H226L204 94L182 160Z" fill="#050711"/>
    <path d="M333 48H408V242H333V48Z" fill="url(#gmtAiDriveLabMark)"/>
    <path d="M66 252H424V269H66V252Z" fill="#43E7FF"/>
    <path d="M108 30H386V45H108V30Z" fill="#FF3D94"/>
    <path d="M64 156C103 119 143 100 185 99C248 98 294 151 358 128C377 121 395 111 413 96" stroke="#43E7FF" stroke-width="11" stroke-linecap="round"/>
    <circle cx="185" cy="99" r="9" fill="#FFD166"/>
    <circle cx="358" cy="128" r="9" fill="#FF3D94"/>
  </g>
  <g filter="url(#gmtAiDriveLabGlow)">
    <text x="468" y="119" fill="url(#gmtAiDriveLabText)" font-family="Arial Black, Impact, sans-serif" font-size="74" font-weight="900" letter-spacing="2">AI DRIVE</text>
    <text x="468" y="195" fill="white" font-family="Arial Black, Impact, sans-serif" font-size="70" font-weight="900" letter-spacing="2">LAB</text>
    <text x="472" y="233" fill="#AAB7CE" font-family="Arial, sans-serif" font-size="20" font-weight="800" letter-spacing="6">GTA MONEY TEAM CREATOR WORKFLOW</text>
  </g>
</svg>
